<svg width="32" height="36" viewBox="0 0 32 36" fill="none" xmlns="http://www.w3.org/2000/svg">
<g clip-path="url(#clip0)">
<path d="M14.4826 9.18294C10.3723 9.18294 7.05698 12.4465 7.05698 16.4925C7.05698 20.5386 10.3723 23.8022 14.4826 23.8022C18.5929 23.8022 21.9082 20.5386 21.9082 16.4925C21.9082 12.4465 18.5929 9.18294 14.4826 9.18294ZM14.4826 21.2447C11.8264 21.2447 9.65498 19.1136 9.65498 16.4925C9.65498 13.8715 11.82 11.7404 14.4826 11.7404C17.1452 11.7404 19.3102 13.8715 19.3102 16.4925C19.3102 19.1136 17.1388 21.2447 14.4826 21.2447ZM23.944 8.88394C23.944 9.83184 23.1685 10.5889 22.212 10.5889C21.249 10.5889 20.48 9.82548 20.48 8.88394C20.48 7.94241 21.2555 7.17901 22.212 7.17901C23.1685 7.17901 23.944 7.94241 23.944 8.88394ZM28.8621 10.6143C28.7522 8.33048 28.2223 6.30745 26.5226 4.64068C24.8294 2.97392 22.7742 2.45226 20.4541 2.33775C18.0629 2.20415 10.8958 2.20415 8.50462 2.33775C6.19098 2.44589 4.13584 2.96755 2.43615 4.63432C0.736467 6.30109 0.212989 8.32411 0.0966604 10.608C-0.0390561 12.9618 -0.0390561 20.0169 0.0966604 22.3708C0.206526 24.6546 0.736467 26.6776 2.43615 28.3444C4.13584 30.0112 6.18451 30.5328 8.50462 30.6474C10.8958 30.7809 18.0629 30.7809 20.4541 30.6474C22.7742 30.5392 24.8294 30.0175 26.5226 28.3444C28.2158 26.6776 28.7458 24.6546 28.8621 22.3708C28.9978 20.0169 28.9978 12.9682 28.8621 10.6143ZM25.7729 24.8964C25.2688 26.1433 24.293 27.1039 23.0198 27.6065C21.1133 28.3508 16.5894 28.179 14.4826 28.179C12.3758 28.179 7.84542 28.3444 5.94539 27.6065C4.67871 27.1102 3.70284 26.1496 3.19229 24.8964C2.43615 23.0197 2.61065 18.5665 2.61065 16.4925C2.61065 14.4186 2.44262 9.95907 3.19229 8.08873C3.69638 6.84184 4.67224 5.88122 5.94539 5.37864C7.85189 4.63432 12.3758 4.80609 14.4826 4.80609C16.5894 4.80609 21.1198 4.64068 23.0198 5.37864C24.2865 5.87486 25.2624 6.83547 25.7729 8.08873C26.5291 9.96544 26.3546 14.4186 26.3546 16.4925C26.3546 18.5665 26.5291 23.026 25.7729 24.8964Z" fill="#55ADD5"/>
</g>
<defs>
<clipPath id="clip0">
<rect width="32" height="36" fill="white"/>
</clipPath>
</defs>
</svg>
