<svg width="166" height="82" viewBox="0 0 166 82" fill="none" xmlns="http://www.w3.org/2000/svg">
<path d="M42.5859 40H33.1914V38.7109C33.4909 38.6849 33.7904 38.6589 34.0898 38.6328C34.4023 38.6068 34.6758 38.5547 34.9102 38.4766C35.2747 38.3594 35.5417 38.1576 35.7109 37.8711C35.8932 37.5716 35.9844 37.1875 35.9844 36.7188V26.7773C35.9844 25.4232 35.6719 24.3815 35.0469 23.6523C34.4349 22.9102 33.6667 22.5391 32.7422 22.5391C32.1042 22.5391 31.5052 22.6367 30.9453 22.832C30.3854 23.0273 29.8711 23.3008 29.4023 23.6523C29.0247 23.9388 28.7057 24.2513 28.4453 24.5898C28.1979 24.9154 28.0091 25.1888 27.8789 25.4102V36.5234C27.8789 36.9792 27.957 37.3568 28.1133 37.6562C28.2695 37.9427 28.5365 38.1641 28.9141 38.3203C29.2135 38.4375 29.4805 38.5286 29.7148 38.5938C29.9622 38.6458 30.2812 38.6849 30.6719 38.7109V40H21.4727V38.7109C21.7721 38.6849 22.0586 38.6589 22.332 38.6328C22.6185 38.6068 22.8789 38.5547 23.1133 38.4766C23.4779 38.3594 23.7448 38.1576 23.9141 37.8711C24.0964 37.5716 24.1875 37.1875 24.1875 36.7188V26.7773C24.1875 25.4232 23.875 24.3815 23.25 23.6523C22.638 22.9102 21.8698 22.5391 20.9453 22.5391C20.3073 22.5391 19.7083 22.6432 19.1484 22.8516C18.5885 23.0469 18.0742 23.3203 17.6055 23.6719C17.2279 23.9583 16.9089 24.2839 16.6484 24.6484C16.388 25 16.1927 25.2669 16.0625 25.4492V36.4844C16.0625 36.9271 16.1536 37.2982 16.3359 37.5977C16.5182 37.8971 16.7917 38.125 17.1562 38.2812C17.4297 38.4115 17.7096 38.5091 17.9961 38.5742C18.2826 38.6393 18.6016 38.6849 18.9531 38.7109V40H9.59766V38.7109C9.89714 38.6849 10.2031 38.6589 10.5156 38.6328C10.8411 38.6068 11.1211 38.5547 11.3555 38.4766C11.7201 38.3594 11.987 38.1576 12.1562 37.8711C12.3385 37.5716 12.4297 37.1875 12.4297 36.7188V24.7461C12.4297 24.3294 12.332 23.9583 12.1367 23.6328C11.9544 23.2943 11.694 23.0078 11.3555 22.7734C11.1081 22.6172 10.8021 22.4935 10.4375 22.4023C10.0729 22.2982 9.69531 22.2331 9.30469 22.207V20.9375L15.75 20.5078L16.0234 20.7812V23.5352H16.1602C16.4857 23.2096 16.8828 22.8255 17.3516 22.3828C17.8203 21.9401 18.2565 21.582 18.6602 21.3086C19.1159 20.9961 19.6823 20.7357 20.3594 20.5273C21.0495 20.319 21.7917 20.2148 22.5859 20.2148C23.8359 20.2148 24.9102 20.5534 25.8086 21.2305C26.707 21.8945 27.3516 22.7018 27.7422 23.6523C28.2109 23.1966 28.6211 22.7995 28.9727 22.4609C29.3372 22.1094 29.8125 21.7383 30.3984 21.3477C30.8932 21.0091 31.4727 20.7357 32.1367 20.5273C32.8138 20.319 33.5625 20.2148 34.3828 20.2148C36.0104 20.2148 37.2995 20.7487 38.25 21.8164C39.2005 22.8841 39.6758 24.5247 39.6758 26.7383V36.5234C39.6758 36.9792 39.7539 37.3568 39.9102 37.6562C40.0664 37.9427 40.3333 38.1641 40.7109 38.3203C41.0104 38.4375 41.3034 38.5286 41.5898 38.5938C41.8893 38.6458 42.2214 38.6849 42.5859 38.7109V40ZM63.0742 39.6484C62.4622 39.8698 61.9219 40.0456 61.4531 40.1758C60.9974 40.319 60.4766 40.3906 59.8906 40.3906C58.875 40.3906 58.0612 40.1562 57.4492 39.6875C56.8503 39.2057 56.4661 38.5091 56.2969 37.5977H56.1797C55.3333 38.5352 54.4219 39.2513 53.4453 39.7461C52.4818 40.2409 51.3164 40.4883 49.9492 40.4883C48.5039 40.4883 47.3125 40.0456 46.375 39.1602C45.4505 38.2747 44.9883 37.1159 44.9883 35.6836C44.9883 34.9414 45.0924 34.2773 45.3008 33.6914C45.5091 33.1055 45.8216 32.5781 46.2383 32.1094C46.5638 31.7188 46.9935 31.3737 47.5273 31.0742C48.0612 30.7617 48.5625 30.5143 49.0312 30.332C49.6172 30.1107 50.8021 29.7005 52.5859 29.1016C54.3828 28.5026 55.5938 28.0339 56.2188 27.6953V25.7617C56.2188 25.5924 56.1797 25.2669 56.1016 24.7852C56.0365 24.3034 55.8867 23.8477 55.6523 23.418C55.3919 22.9362 55.0208 22.5195 54.5391 22.168C54.0703 21.8034 53.3997 21.6211 52.5273 21.6211C51.9284 21.6211 51.3685 21.7253 50.8477 21.9336C50.3398 22.1289 49.9818 22.3372 49.7734 22.5586C49.7734 22.819 49.832 23.2031 49.9492 23.7109C50.0794 24.2188 50.1445 24.6875 50.1445 25.1172C50.1445 25.5729 49.9362 25.9896 49.5195 26.3672C49.1159 26.7448 48.5495 26.9336 47.8203 26.9336C47.1693 26.9336 46.6875 26.7057 46.375 26.25C46.0755 25.7812 45.9258 25.2604 45.9258 24.6875C45.9258 24.0885 46.1341 23.5156 46.5508 22.9688C46.9805 22.4219 47.5339 21.9336 48.2109 21.5039C48.7969 21.1393 49.5065 20.8333 50.3398 20.5859C51.1732 20.3255 51.987 20.1953 52.7812 20.1953C53.875 20.1953 54.8255 20.2734 55.6328 20.4297C56.4531 20.5729 57.1953 20.8919 57.8594 21.3867C58.5234 21.8685 59.0247 22.526 59.3633 23.3594C59.7148 24.1797 59.8906 25.2409 59.8906 26.543C59.8906 28.4049 59.8711 30.0586 59.832 31.5039C59.793 32.9362 59.7734 34.5052 59.7734 36.2109C59.7734 36.7188 59.8581 37.1224 60.0273 37.4219C60.2096 37.7214 60.4831 37.9753 60.8477 38.1836C61.043 38.3008 61.349 38.3659 61.7656 38.3789C62.1953 38.3919 62.6315 38.3984 63.0742 38.3984V39.6484ZM56.2578 29.3359C55.151 29.6615 54.181 29.9805 53.3477 30.293C52.5143 30.6055 51.7396 30.9961 51.0234 31.4648C50.3724 31.9076 49.8581 32.4349 49.4805 33.0469C49.1029 33.6458 48.9141 34.362 48.9141 35.1953C48.9141 36.276 49.194 37.0703 49.7539 37.5781C50.3268 38.0859 51.0495 38.3398 51.9219 38.3398C52.8464 38.3398 53.6602 38.1185 54.3633 37.6758C55.0664 37.2201 55.6589 36.6862 56.1406 36.0742L56.2578 29.3359ZM85.9062 40H76.4531V38.7109C76.7526 38.6849 77.0846 38.6589 77.4492 38.6328C77.8138 38.6068 78.1133 38.5547 78.3477 38.4766C78.7122 38.3594 78.9792 38.1576 79.1484 37.8711C79.3307 37.5716 79.4219 37.1875 79.4219 36.7188V26.8164C79.4219 25.4492 79.0964 24.3945 78.4453 23.6523C77.8073 22.9102 77.026 22.5391 76.1016 22.5391C75.4245 22.5391 74.793 22.6497 74.207 22.8711C73.6341 23.0794 73.1198 23.3398 72.6641 23.6523C72.2214 23.9779 71.8828 24.3034 71.6484 24.6289C71.4141 24.9544 71.2318 25.2279 71.1016 25.4492V36.5234C71.1016 36.9661 71.1862 37.3307 71.3555 37.6172C71.5378 37.9036 71.8112 38.125 72.1758 38.2812C72.4622 38.4115 72.7552 38.5091 73.0547 38.5742C73.3672 38.6393 73.7057 38.6849 74.0703 38.7109V40H64.6172V38.7109C64.9167 38.6849 65.2292 38.6589 65.5547 38.6328C65.8802 38.5938 66.1536 38.5417 66.375 38.4766C66.7396 38.3594 67.013 38.1576 67.1953 37.8711C67.3776 37.5716 67.4688 37.1875 67.4688 36.7188V14.2969C67.4688 13.8542 67.3646 13.4115 67.1562 12.9688C66.9609 12.526 66.7005 12.194 66.375 11.9727C66.1406 11.8034 65.724 11.6862 65.125 11.6211C64.5391 11.543 64.0638 11.4909 63.6992 11.4648V10.2148L70.8281 9.76562L71.1016 10.0586V23.4961H71.1797C71.6094 23.0664 72 22.6888 72.3516 22.3633C72.7031 22.0247 73.1654 21.6732 73.7383 21.3086C74.2331 20.9961 74.8125 20.7357 75.4766 20.5273C76.1536 20.319 76.9089 20.2148 77.7422 20.2148C79.4609 20.2148 80.7826 20.7617 81.707 21.8555C82.6315 22.9362 83.0938 24.4987 83.0938 26.543V36.5625C83.0938 37.0182 83.1719 37.3893 83.3281 37.6758C83.4974 37.9492 83.7708 38.1641 84.1484 38.3203C84.4479 38.4375 84.7148 38.5286 84.9492 38.5938C85.1966 38.6458 85.5156 38.6849 85.9062 38.7109V40ZM106.512 39.6484C105.9 39.8698 105.359 40.0456 104.891 40.1758C104.435 40.319 103.914 40.3906 103.328 40.3906C102.312 40.3906 101.499 40.1562 100.887 39.6875C100.288 39.2057 99.9036 38.5091 99.7344 37.5977H99.6172C98.7708 38.5352 97.8594 39.2513 96.8828 39.7461C95.9193 40.2409 94.7539 40.4883 93.3867 40.4883C91.9414 40.4883 90.75 40.0456 89.8125 39.1602C88.888 38.2747 88.4258 37.1159 88.4258 35.6836C88.4258 34.9414 88.5299 34.2773 88.7383 33.6914C88.9466 33.1055 89.2591 32.5781 89.6758 32.1094C90.0013 31.7188 90.431 31.3737 90.9648 31.0742C91.4987 30.7617 92 30.5143 92.4688 30.332C93.0547 30.1107 94.2396 29.7005 96.0234 29.1016C97.8203 28.5026 99.0312 28.0339 99.6562 27.6953V25.7617C99.6562 25.5924 99.6172 25.2669 99.5391 24.7852C99.474 24.3034 99.3242 23.8477 99.0898 23.418C98.8294 22.9362 98.4583 22.5195 97.9766 22.168C97.5078 21.8034 96.8372 21.6211 95.9648 21.6211C95.3659 21.6211 94.806 21.7253 94.2852 21.9336C93.7773 22.1289 93.4193 22.3372 93.2109 22.5586C93.2109 22.819 93.2695 23.2031 93.3867 23.7109C93.5169 24.2188 93.582 24.6875 93.582 25.1172C93.582 25.5729 93.3737 25.9896 92.957 26.3672C92.5534 26.7448 91.987 26.9336 91.2578 26.9336C90.6068 26.9336 90.125 26.7057 89.8125 26.25C89.513 25.7812 89.3633 25.2604 89.3633 24.6875C89.3633 24.0885 89.5716 23.5156 89.9883 22.9688C90.418 22.4219 90.9714 21.9336 91.6484 21.5039C92.2344 21.1393 92.944 20.8333 93.7773 20.5859C94.6107 20.3255 95.4245 20.1953 96.2188 20.1953C97.3125 20.1953 98.263 20.2734 99.0703 20.4297C99.8906 20.5729 100.633 20.8919 101.297 21.3867C101.961 21.8685 102.462 22.526 102.801 23.3594C103.152 24.1797 103.328 25.2409 103.328 26.543C103.328 28.4049 103.309 30.0586 103.27 31.5039C103.23 32.9362 103.211 34.5052 103.211 36.2109C103.211 36.7188 103.296 37.1224 103.465 37.4219C103.647 37.7214 103.921 37.9753 104.285 38.1836C104.48 38.3008 104.786 38.3659 105.203 38.3789C105.633 38.3919 106.069 38.3984 106.512 38.3984V39.6484ZM99.6953 29.3359C98.5885 29.6615 97.6185 29.9805 96.7852 30.293C95.9518 30.6055 95.1771 30.9961 94.4609 31.4648C93.8099 31.9076 93.2956 32.4349 92.918 33.0469C92.5404 33.6458 92.3516 34.362 92.3516 35.1953C92.3516 36.276 92.6315 37.0703 93.1914 37.5781C93.7643 38.0859 94.487 38.3398 95.3594 38.3398C96.2839 38.3398 97.0977 38.1185 97.8008 37.6758C98.5039 37.2201 99.0964 36.6862 99.5781 36.0742L99.6953 29.3359ZM129.695 40H120.262V38.7109C120.561 38.6849 120.887 38.6589 121.238 38.6328C121.603 38.6068 121.902 38.5547 122.137 38.4766C122.501 38.3594 122.768 38.1576 122.938 37.8711C123.12 37.5716 123.211 37.1875 123.211 36.7188V26.8164C123.211 25.4492 122.885 24.3945 122.234 23.6523C121.596 22.9102 120.815 22.5391 119.891 22.5391C119.201 22.5391 118.569 22.6497 117.996 22.8711C117.423 23.0794 116.915 23.3398 116.473 23.6523C116.043 23.9518 115.698 24.2773 115.438 24.6289C115.19 24.9674 115.008 25.2409 114.891 25.4492V36.5234C114.891 36.9661 114.982 37.3307 115.164 37.6172C115.346 37.9036 115.62 38.125 115.984 38.2812C116.258 38.4115 116.551 38.5091 116.863 38.5742C117.189 38.6393 117.521 38.6849 117.859 38.7109V40H108.426V38.7109C108.725 38.6849 109.031 38.6589 109.344 38.6328C109.669 38.6068 109.949 38.5547 110.184 38.4766C110.548 38.3594 110.815 38.1576 110.984 37.8711C111.167 37.5716 111.258 37.1875 111.258 36.7188V24.8242C111.258 24.3815 111.16 23.9779 110.965 23.6133C110.783 23.2357 110.522 22.9297 110.184 22.6953C109.936 22.5391 109.643 22.4284 109.305 22.3633C108.966 22.2852 108.602 22.2331 108.211 22.207V20.9375L114.617 20.5078L114.891 20.7812V23.4961H114.988C115.301 23.1836 115.691 22.8125 116.16 22.3828C116.629 21.9401 117.072 21.582 117.488 21.3086C117.97 20.9961 118.543 20.7357 119.207 20.5273C119.871 20.319 120.62 20.2148 121.453 20.2148C123.302 20.2148 124.669 20.7943 125.555 21.9531C126.453 23.099 126.902 24.6289 126.902 26.543V36.5625C126.902 37.0182 126.98 37.3893 127.137 37.6758C127.293 37.9492 127.56 38.1641 127.938 38.3203C128.25 38.4505 128.517 38.5417 128.738 38.5938C128.973 38.6458 129.292 38.6849 129.695 38.7109V40ZM150.301 39.6484C149.689 39.8698 149.148 40.0456 148.68 40.1758C148.224 40.319 147.703 40.3906 147.117 40.3906C146.102 40.3906 145.288 40.1562 144.676 39.6875C144.077 39.2057 143.693 38.5091 143.523 37.5977H143.406C142.56 38.5352 141.648 39.2513 140.672 39.7461C139.708 40.2409 138.543 40.4883 137.176 40.4883C135.73 40.4883 134.539 40.0456 133.602 39.1602C132.677 38.2747 132.215 37.1159 132.215 35.6836C132.215 34.9414 132.319 34.2773 132.527 33.6914C132.736 33.1055 133.048 32.5781 133.465 32.1094C133.79 31.7188 134.22 31.3737 134.754 31.0742C135.288 30.7617 135.789 30.5143 136.258 30.332C136.844 30.1107 138.029 29.7005 139.812 29.1016C141.609 28.5026 142.82 28.0339 143.445 27.6953V25.7617C143.445 25.5924 143.406 25.2669 143.328 24.7852C143.263 24.3034 143.113 23.8477 142.879 23.418C142.618 22.9362 142.247 22.5195 141.766 22.168C141.297 21.8034 140.626 21.6211 139.754 21.6211C139.155 21.6211 138.595 21.7253 138.074 21.9336C137.566 22.1289 137.208 22.3372 137 22.5586C137 22.819 137.059 23.2031 137.176 23.7109C137.306 24.2188 137.371 24.6875 137.371 25.1172C137.371 25.5729 137.163 25.9896 136.746 26.3672C136.342 26.7448 135.776 26.9336 135.047 26.9336C134.396 26.9336 133.914 26.7057 133.602 26.25C133.302 25.7812 133.152 25.2604 133.152 24.6875C133.152 24.0885 133.361 23.5156 133.777 22.9688C134.207 22.4219 134.76 21.9336 135.438 21.5039C136.023 21.1393 136.733 20.8333 137.566 20.5859C138.4 20.3255 139.214 20.1953 140.008 20.1953C141.102 20.1953 142.052 20.2734 142.859 20.4297C143.68 20.5729 144.422 20.8919 145.086 21.3867C145.75 21.8685 146.251 22.526 146.59 23.3594C146.941 24.1797 147.117 25.2409 147.117 26.543C147.117 28.4049 147.098 30.0586 147.059 31.5039C147.02 32.9362 147 34.5052 147 36.2109C147 36.7188 147.085 37.1224 147.254 37.4219C147.436 37.7214 147.71 37.9753 148.074 38.1836C148.27 38.3008 148.576 38.3659 148.992 38.3789C149.422 38.3919 149.858 38.3984 150.301 38.3984V39.6484ZM143.484 29.3359C142.378 29.6615 141.408 29.9805 140.574 30.293C139.741 30.6055 138.966 30.9961 138.25 31.4648C137.599 31.9076 137.085 32.4349 136.707 33.0469C136.329 33.6458 136.141 34.362 136.141 35.1953C136.141 36.276 136.421 37.0703 136.98 37.5781C137.553 38.0859 138.276 38.3398 139.148 38.3398C140.073 38.3398 140.887 38.1185 141.59 37.6758C142.293 37.2201 142.885 36.6862 143.367 36.0742L143.484 29.3359Z" fill="white"/>
<path d="M40.948 60.4814C41.2306 60.6729 41.4653 60.9235 41.6521 61.2334C41.839 61.5433 41.9324 61.9193 41.9324 62.3613C41.9324 62.8125 41.8344 63.2044 41.6385 63.5371C41.4425 63.8698 41.1873 64.1432 40.8729 64.3574C40.5675 64.5671 40.2212 64.7266 39.8338 64.8359C39.451 64.9453 39.0545 65 38.6443 65H34.0506V64.5146C34.16 64.5055 34.3195 64.4873 34.5291 64.46C34.7387 64.4281 34.8891 64.3916 34.9803 64.3506C35.1216 64.2868 35.2218 64.2025 35.2811 64.0977C35.3403 63.9883 35.3699 63.8493 35.3699 63.6807V56.708C35.3699 56.5531 35.3426 56.4163 35.2879 56.2979C35.2378 56.1794 35.1352 56.0837 34.9803 56.0107C34.8436 55.9424 34.6909 55.89 34.5223 55.8535C34.3536 55.8171 34.2124 55.7943 34.0984 55.7852V55.2998H38.576C38.9223 55.2998 39.2527 55.334 39.5672 55.4023C39.8862 55.4707 40.1893 55.5915 40.4764 55.7646C40.7452 55.9242 40.9663 56.1406 41.1395 56.4141C41.3126 56.6875 41.3992 57.0202 41.3992 57.4121C41.3992 57.7539 41.3377 58.0592 41.2146 58.3281C41.0916 58.5924 40.9184 58.8203 40.6951 59.0117C40.4855 59.194 40.2439 59.349 39.9705 59.4766C39.7016 59.5996 39.41 59.6953 39.0955 59.7637V59.8252C39.3735 59.8571 39.6834 59.9277 40.0252 60.0371C40.3716 60.1419 40.6792 60.29 40.948 60.4814ZM39.3006 59.0186C39.4692 58.8226 39.5854 58.6084 39.6492 58.376C39.7176 58.1436 39.7518 57.8678 39.7518 57.5488C39.7518 57.0156 39.6059 56.5986 39.3143 56.2979C39.0226 55.9925 38.5623 55.8398 37.9334 55.8398C37.7876 55.8398 37.603 55.8444 37.3797 55.8535C37.1609 55.8581 36.9764 55.8626 36.826 55.8672V59.5928H37.6941C38.0678 59.5928 38.3868 59.5449 38.6512 59.4492C38.9201 59.3535 39.1365 59.21 39.3006 59.0186ZM40.2439 62.1152C40.2439 61.541 40.0503 61.0693 39.6629 60.7002C39.2801 60.3311 38.7309 60.1465 38.0154 60.1465C37.7238 60.1465 37.4777 60.151 37.2771 60.1602C37.0766 60.1647 36.9262 60.1693 36.826 60.1738V63.5918C36.826 63.8789 36.9422 64.0954 37.1746 64.2412C37.407 64.387 37.7306 64.46 38.1453 64.46C38.8243 64.46 39.3439 64.2617 39.7039 63.8652C40.0639 63.4688 40.2439 62.8854 40.2439 62.1152ZM48.1695 65H43.8014V64.5146C43.9244 64.5055 44.1021 64.4919 44.3346 64.4736C44.567 64.4554 44.7311 64.4281 44.8268 64.3916C44.9771 64.3324 45.0865 64.2526 45.1549 64.1523C45.2232 64.0475 45.2574 63.904 45.2574 63.7217V56.6943C45.2574 56.5348 45.2324 56.4027 45.1822 56.2979C45.1321 56.1885 45.0136 56.0973 44.8268 56.0244C44.69 55.9697 44.5169 55.9196 44.3072 55.874C44.1021 55.8239 43.9335 55.7943 43.8014 55.7852V55.2998H48.1695V55.7852C48.0283 55.7897 47.8596 55.8079 47.6637 55.8398C47.4677 55.8672 47.2968 55.9036 47.151 55.9492C46.9778 56.0039 46.8616 56.0928 46.8023 56.2158C46.7431 56.3389 46.7135 56.4756 46.7135 56.626V63.6465C46.7135 63.7969 46.7454 63.9313 46.8092 64.0498C46.8775 64.1637 46.9915 64.2549 47.151 64.3232C47.2467 64.3597 47.4016 64.4007 47.6158 64.4463C47.8346 64.4873 48.0191 64.5101 48.1695 64.5146V65ZM57.9203 56.4482C58.3487 56.8949 58.6837 57.4349 58.9252 58.0684C59.1667 58.6973 59.2875 59.3945 59.2875 60.1602C59.2875 60.9303 59.1645 61.6299 58.9184 62.2588C58.6723 62.8877 58.3305 63.4232 57.893 63.8652C57.4691 64.3027 56.977 64.64 56.4164 64.877C55.8559 65.1139 55.2589 65.2324 54.6254 65.2324C53.9509 65.2324 53.3266 65.1071 52.7523 64.8564C52.1827 64.6012 51.6928 64.248 51.2826 63.7969C50.8725 63.3548 50.5489 62.8193 50.3119 62.1904C50.0795 61.557 49.9633 60.8802 49.9633 60.1602C49.9633 59.3717 50.0863 58.6699 50.3324 58.0547C50.5785 57.4349 50.918 56.8994 51.351 56.4482C51.7794 56.0016 52.2761 55.6598 52.8412 55.4229C53.4109 55.1859 54.0056 55.0674 54.6254 55.0674C55.268 55.0674 55.8741 55.1882 56.4438 55.4297C57.0134 55.6712 57.5056 56.0107 57.9203 56.4482ZM56.9018 63.3252C57.157 62.9105 57.3415 62.4411 57.4555 61.917C57.574 61.3929 57.6332 60.8073 57.6332 60.1602C57.6332 59.4948 57.5671 58.8841 57.435 58.3281C57.3074 57.7721 57.1182 57.2982 56.8676 56.9062C56.6169 56.5189 56.3025 56.2181 55.9242 56.0039C55.546 55.7852 55.113 55.6758 54.6254 55.6758C54.0785 55.6758 53.6137 55.8011 53.2309 56.0518C52.848 56.3024 52.5359 56.6374 52.2943 57.0566C52.0665 57.4577 51.8956 57.9271 51.7816 58.4648C51.6723 59.0026 51.6176 59.5677 51.6176 60.1602C51.6176 60.8164 51.6768 61.4089 51.7953 61.9375C51.9138 62.4661 52.1007 62.9355 52.3559 63.3457C52.602 63.7467 52.9118 64.0612 53.2855 64.2891C53.6592 64.5124 54.1059 64.624 54.6254 64.624C55.113 64.624 55.5528 64.5101 55.9447 64.2822C56.3367 64.0544 56.6557 63.7354 56.9018 63.3252ZM68.6281 57.6924C68.6281 58.1982 68.5279 58.6471 68.3273 59.0391C68.1314 59.4264 67.8579 59.7477 67.507 60.0029C67.1607 60.2581 66.7801 60.445 66.3654 60.5635C65.9507 60.682 65.5109 60.7412 65.0461 60.7412H63.9592V63.6807C63.9592 63.8402 63.9842 63.9814 64.0344 64.1045C64.0891 64.223 64.1984 64.3141 64.3625 64.3779C64.4445 64.4098 64.5881 64.4395 64.7932 64.4668C65.0028 64.4941 65.1942 64.5101 65.3674 64.5146V65H61.2043V64.5146C61.3137 64.5055 61.4709 64.4896 61.676 64.4668C61.8856 64.444 62.0314 64.4144 62.1135 64.3779C62.2502 64.3187 62.3482 64.2321 62.4074 64.1182C62.4712 64.0042 62.5031 63.8584 62.5031 63.6807V56.6807C62.5031 56.5212 62.4803 56.3776 62.4348 56.25C62.3892 56.1224 62.2821 56.0267 62.1135 55.9629C61.9403 55.9036 61.7671 55.8626 61.5939 55.8398C61.4253 55.8125 61.2795 55.7943 61.1564 55.7852V55.2998H65.5861C66.4885 55.2998 67.2199 55.5186 67.7805 55.9561C68.3456 56.389 68.6281 56.9678 68.6281 57.6924ZM66.55 59.3467C66.7049 59.1279 66.8075 58.9023 66.8576 58.6699C66.9077 58.4329 66.9328 58.221 66.9328 58.0342C66.9328 57.7744 66.9009 57.5101 66.8371 57.2412C66.7779 56.9723 66.673 56.7376 66.5227 56.5371C66.3632 56.3229 66.1535 56.1566 65.8938 56.0381C65.634 55.9196 65.3104 55.8604 64.923 55.8604H63.9592V60.1465H64.6564C65.1486 60.1465 65.5474 60.0713 65.8527 59.9209C66.1626 59.766 66.3951 59.5745 66.55 59.3467ZM80.4912 65H76.4648V64.5146C76.5742 64.5055 76.7314 64.4919 76.9365 64.4736C77.1462 64.4554 77.2897 64.4281 77.3672 64.3916C77.5039 64.3369 77.6042 64.2549 77.668 64.1455C77.7318 64.0316 77.7637 63.8857 77.7637 63.708V60.2559H73.2041V63.6328C73.2041 63.7923 73.2292 63.9268 73.2793 64.0361C73.334 64.1455 73.4388 64.2412 73.5938 64.3232C73.6712 64.3643 73.8079 64.4053 74.0039 64.4463C74.2044 64.4873 74.3617 64.5101 74.4756 64.5146V65H70.4492V64.5146C70.5586 64.5055 70.7158 64.4919 70.9209 64.4736C71.1305 64.4554 71.2741 64.4281 71.3516 64.3916C71.4883 64.3369 71.5885 64.2549 71.6523 64.1455C71.7161 64.0316 71.748 63.8857 71.748 63.708V56.708C71.748 56.5622 71.7184 56.43 71.6592 56.3115C71.5999 56.1885 71.4974 56.0928 71.3516 56.0244C71.2285 55.9652 71.0781 55.9128 70.9004 55.8672C70.7272 55.8216 70.5768 55.7943 70.4492 55.7852V55.2998H74.4756V55.7852C74.348 55.7897 74.1908 55.8102 74.0039 55.8467C73.8216 55.8831 73.6849 55.9173 73.5938 55.9492C73.4388 56.0039 73.334 56.0951 73.2793 56.2227C73.2292 56.3503 73.2041 56.4893 73.2041 56.6396V59.6475H77.7637V56.708C77.7637 56.5622 77.734 56.43 77.6748 56.3115C77.6156 56.1885 77.513 56.0928 77.3672 56.0244C77.2441 55.9652 77.0938 55.9128 76.916 55.8672C76.7428 55.8216 76.5924 55.7943 76.4648 55.7852V55.2998H80.4912V55.7852C80.3636 55.7897 80.2064 55.8102 80.0195 55.8467C79.8372 55.8831 79.7005 55.9173 79.6094 55.9492C79.4544 56.0039 79.3496 56.0951 79.2949 56.2227C79.2448 56.3503 79.2197 56.4893 79.2197 56.6396V63.6328C79.2197 63.7923 79.2448 63.9268 79.2949 64.0361C79.3496 64.1455 79.4544 64.2412 79.6094 64.3232C79.6868 64.3643 79.8236 64.4053 80.0195 64.4463C80.2201 64.4873 80.3773 64.5101 80.4912 64.5146V65ZM91.6092 65H87.5691V64.5146C87.9246 64.4919 88.2186 64.4463 88.451 64.3779C88.688 64.3096 88.8064 64.2253 88.8064 64.125C88.8064 64.084 88.8019 64.0339 88.7928 63.9746C88.7837 63.9154 88.77 63.863 88.7518 63.8174L87.9451 61.6436H84.5477C84.4201 61.9626 84.3152 62.2406 84.2332 62.4775C84.1557 62.7145 84.0851 62.9333 84.0213 63.1338C83.962 63.3298 83.921 63.4893 83.8982 63.6123C83.8755 63.7354 83.8641 63.8356 83.8641 63.9131C83.8641 64.0954 84.0076 64.2367 84.2947 64.3369C84.5818 64.4372 84.9054 64.4964 85.2654 64.5146V65H81.615V64.5146C81.7335 64.5055 81.8816 64.4805 82.0594 64.4395C82.2371 64.3939 82.3829 64.3346 82.4969 64.2617C82.6792 64.1387 82.8204 64.0111 82.9207 63.8789C83.021 63.7422 83.1189 63.5553 83.2146 63.3184C83.7023 62.1016 84.24 60.7344 84.8279 59.2168C85.4158 57.6992 85.9399 56.348 86.4002 55.1631H86.9471L90.1805 63.5303C90.2488 63.708 90.3263 63.8516 90.4129 63.9609C90.4995 64.0703 90.6202 64.1774 90.7752 64.2822C90.88 64.346 91.0167 64.4007 91.1854 64.4463C91.354 64.4873 91.4952 64.5101 91.6092 64.5146V65ZM87.699 61.0352L86.2293 57.2754L84.7869 61.0352H87.699ZM102.105 65H99.4938C98.915 64.0931 98.3909 63.3092 97.9215 62.6484C97.4566 61.9876 96.9508 61.3063 96.4039 60.6045H95.4127V63.6807C95.4127 63.8402 95.4378 63.9814 95.4879 64.1045C95.538 64.223 95.6451 64.3141 95.8092 64.3779C95.8912 64.4098 96.0348 64.4395 96.2398 64.4668C96.4449 64.4941 96.6181 64.5101 96.7594 64.5146V65H92.6578V64.5146C92.7672 64.5055 92.9244 64.4896 93.1295 64.4668C93.3391 64.444 93.485 64.4144 93.567 64.3779C93.7037 64.3187 93.8017 64.2321 93.8609 64.1182C93.9247 64.0042 93.9566 63.8584 93.9566 63.6807V56.667C93.9566 56.5075 93.9339 56.3662 93.8883 56.2432C93.8427 56.1201 93.7356 56.0267 93.567 55.9629C93.4531 55.9219 93.3049 55.8854 93.1227 55.8535C92.9404 55.8171 92.7854 55.7943 92.6578 55.7852V55.2998H97.1354C97.5455 55.2998 97.9306 55.3431 98.2906 55.4297C98.6507 55.5117 98.9765 55.6462 99.2682 55.833C99.5507 56.0153 99.7763 56.2546 99.9449 56.5508C100.114 56.8424 100.198 57.1956 100.198 57.6104C100.198 57.984 100.141 58.3145 100.027 58.6016C99.913 58.8887 99.7444 59.137 99.5211 59.3467C99.316 59.5426 99.0699 59.7135 98.7828 59.8594C98.4957 60.0007 98.179 60.1214 97.8326 60.2217C98.3111 60.8551 98.7076 61.3883 99.0221 61.8213C99.3411 62.2542 99.7307 62.7806 100.191 63.4004C100.392 63.6738 100.572 63.8766 100.731 64.0088C100.895 64.1364 101.057 64.2412 101.216 64.3232C101.335 64.3825 101.483 64.4281 101.661 64.46C101.838 64.4919 101.987 64.5101 102.105 64.5146V65ZM98.5094 57.7676C98.5094 57.1797 98.3408 56.7148 98.0035 56.373C97.6663 56.0267 97.19 55.8535 96.5748 55.8535H95.4127V60.0166H96.3082C96.9371 60.0166 97.4612 59.8161 97.8805 59.415C98.2997 59.0094 98.5094 58.4603 98.5094 57.7676ZM114.864 65H110.578V64.5146C110.732 64.5101 110.931 64.4941 111.172 64.4668C111.418 64.4395 111.587 64.4007 111.678 64.3506C111.819 64.264 111.922 64.166 111.986 64.0566C112.054 63.9427 112.088 63.8014 112.088 63.6328V56.5781H111.986L108.677 64.8428H108.335L105.184 56.4072H105.095V62.1973C105.095 62.7578 105.129 63.1839 105.198 63.4756C105.271 63.7673 105.38 63.9769 105.526 64.1045C105.626 64.2002 105.833 64.2913 106.148 64.3779C106.462 64.4645 106.667 64.5101 106.763 64.5146V65H102.846V64.5146C103.051 64.4964 103.265 64.4622 103.489 64.4121C103.717 64.362 103.892 64.2868 104.015 64.1865C104.175 64.0589 104.284 63.863 104.343 63.5986C104.402 63.3343 104.432 62.8923 104.432 62.2725V57.3096C104.432 57.0225 104.398 56.7878 104.329 56.6055C104.261 56.4232 104.163 56.2751 104.036 56.1611C103.894 56.0381 103.721 55.9469 103.516 55.8877C103.311 55.8285 103.108 55.7943 102.908 55.7852V55.2998H106.216L108.992 62.5732L111.364 56.4893C111.45 56.266 111.523 56.0335 111.582 55.792C111.646 55.5459 111.68 55.3818 111.685 55.2998H114.85V55.7852C114.722 55.7897 114.558 55.8102 114.358 55.8467C114.162 55.8831 114.018 55.9173 113.927 55.9492C113.772 56.0039 113.667 56.0951 113.613 56.2227C113.558 56.3503 113.531 56.4893 113.531 56.6396V63.6328C113.531 63.7923 113.558 63.9268 113.613 64.0361C113.667 64.1455 113.772 64.2412 113.927 64.3232C114.009 64.3688 114.155 64.4121 114.365 64.4531C114.574 64.4896 114.741 64.5101 114.864 64.5146V65ZM125.92 65H121.88V64.5146C122.236 64.4919 122.529 64.4463 122.762 64.3779C122.999 64.3096 123.117 64.2253 123.117 64.125C123.117 64.084 123.113 64.0339 123.104 63.9746C123.095 63.9154 123.081 63.863 123.063 63.8174L122.256 61.6436H118.859C118.731 61.9626 118.626 62.2406 118.544 62.4775C118.467 62.7145 118.396 62.9333 118.332 63.1338C118.273 63.3298 118.232 63.4893 118.209 63.6123C118.186 63.7354 118.175 63.8356 118.175 63.9131C118.175 64.0954 118.319 64.2367 118.606 64.3369C118.893 64.4372 119.216 64.4964 119.576 64.5146V65H115.926V64.5146C116.044 64.5055 116.193 64.4805 116.37 64.4395C116.548 64.3939 116.694 64.3346 116.808 64.2617C116.99 64.1387 117.131 64.0111 117.232 63.8789C117.332 63.7422 117.43 63.5553 117.526 63.3184C118.013 62.1016 118.551 60.7344 119.139 59.2168C119.727 57.6992 120.251 56.348 120.711 55.1631H121.258L124.491 63.5303C124.56 63.708 124.637 63.8516 124.724 63.9609C124.81 64.0703 124.931 64.1774 125.086 64.2822C125.191 64.346 125.328 64.4007 125.496 64.4463C125.665 64.4873 125.806 64.5101 125.92 64.5146V65ZM122.01 61.0352L120.54 57.2754L119.098 61.0352H122.01Z" fill="white"/>
</svg>
