<svg width="17" height="9" viewBox="0 0 17 9" fill="none" xmlns="http://www.w3.org/2000/svg">
<path d="M16.1515 7.79492L15.5509 0.279297C15.5382 0.121875 15.407 0 15.248 0H14.1628C14.0392 0 13.9281 0.0761718 13.8802 0.192969L12.3761 4.0168C12.1944 4.49668 11.9773 5.20762 11.9773 5.20762H11.9546C11.9546 5.20762 11.7275 4.49922 11.5458 4.0168L10.0417 0.192969C9.99626 0.0761718 9.88522 0 9.75904 0H8.67386C8.51739 0 8.38363 0.121875 8.37102 0.279297L7.76029 7.79492C7.74515 7.97266 7.88395 8.125 8.06313 8.125H8.92118C9.08017 8.125 9.2114 8.00313 9.22402 7.84316L9.54452 3.58262C9.57985 3.04434 9.55714 2.31309 9.55714 2.31309H9.57985C9.57985 2.31309 9.8297 3.11289 10.024 3.58262L11.243 6.54063C11.2909 6.65488 11.3994 6.72852 11.5231 6.72852H12.4038C12.525 6.72852 12.636 6.65488 12.684 6.54063L13.913 3.58008C14.1073 3.11035 14.3445 2.3207 14.3445 2.3207H14.3673C14.3673 2.3207 14.3445 3.0418 14.3799 3.58008L14.7004 7.84062C14.713 8.00059 14.8442 8.12246 15.0032 8.12246H15.8487C16.0253 8.125 16.1641 7.97266 16.1515 7.79492ZM6.46564 0H0.30284C0.136278 0 0 0.137109 0 0.304688V0.964844C0 1.13242 0.136278 1.26953 0.30284 1.26953H2.64985V7.82031C2.64985 7.98789 2.78613 8.125 2.95269 8.125H3.81327C3.97983 8.125 4.11611 7.98789 4.11611 7.82031V1.26953H6.46312C6.62968 1.26953 6.76596 1.13242 6.76596 0.964844V0.304688C6.76849 0.137109 6.63221 0 6.46564 0Z" fill="white" fill-opacity="0.7"/>
</svg>
