<svg fill="none" height="33" viewBox="0 0 33 33" width="33" xmlns="http://www.w3.org/2000/svg"><path d="m29.6078 9.77853c.021.29317.021.58637.021.87947 0 8.9409-6.8052 19.243-19.243 19.243-3.83188 0-7.3915-1.1098-10.3858-3.0361.544436.0627 1.06786.0837 1.63324.0837 3.16175 0 6.07232-1.0679 8.39656-2.8896-2.97334-.0628-5.4651-2.0101-6.32362-4.6904.41882.0628.83757.1047 1.27734.1047.60721 0 1.21449-.0838 1.7798-.2303-3.09897-.6282-5.42328-3.3503-5.42328-6.6377v-.0837c.90035.5025 1.94739.8166 3.05708.8584-1.8217-1.2144-3.01518-3.2874-3.01518-5.63258 0-1.25632.33496-2.40797.92129-3.41305 3.32933 4.10405 8.33377 6.78423 13.94537 7.07743-.1046-.5026-.1675-1.026-.1675-1.54948 0-3.72719 3.0153-6.76332 6.7633-6.76332 1.9474 0 3.7062.81662 4.9417 2.13578 1.5285-.29313 2.9942-.85851 4.2925-1.63324-.5026 1.57046-1.5705 2.88963-2.9734 3.72713 1.3611-.1465 2.6802-.52349 3.8947-1.04691-.9212 1.34004-2.0729 2.53352-3.3921 3.49677z" fill="#55add4"/></svg>